<svg xmlns="http://www.w3.org/2000/svg" width="21" height="21" viewBox="0 0 21 21"><defs><style>.a{fill:#fff;}.b{fill:#e9b0d5;}</style></defs><g transform="translate(0.3 2)"><g transform="translate(-0.3 -2)"><path class="a" d="M16.45,21H4.55A4.55,4.55,0,0,1,0,16.45V4.55A4.55,4.55,0,0,1,4.55,0h11.9A4.55,4.55,0,0,1,21,4.55v11.9A4.55,4.55,0,0,1,16.45,21Z"/><g transform="translate(2.821 3.371)"><path class="b" d="M31.412,25.466c0-3.421-3.43-6.206-7.646-6.206s-7.646,2.784-7.646,6.206c0,3.068,2.719,5.637,6.395,6.121.248.054.588.164.674.376a1.563,1.563,0,0,1,.025.691l-.109.654c-.033.193-.154.756.662.413a24.7,24.7,0,0,0,6.008-4.44h0a5.523,5.523,0,0,0,1.638-3.817" transform="translate(-16.12 -19.26)"/><g transform="translate(2.508 4.552)"><path class="a" d="M47.7,45.28h-.535a.149.149,0,0,0-.149.149v3.332a.149.149,0,0,0,.149.149H47.7a.149.149,0,0,0,.149-.149V45.429a.149.149,0,0,0-.149-.149" transform="translate(-44.12 -45.278)"/><path class="a" d="M57.772,45.272h-.535a.149.149,0,0,0-.149.149V47.4l-1.526-2.062a.1.1,0,0,0-.012-.016l0,0s-.005-.007-.009-.009l0,0a.038.038,0,0,0-.009-.007l0,0-.007-.005-.005,0-.009-.005-.005,0-.009,0-.005,0-.009,0a.006.006,0,0,1-.005,0l-.009,0h-.007a.011.011,0,0,1-.007,0H54.9a.149.149,0,0,0-.149.149v3.332a.149.149,0,0,0,.149.149h.535a.149.149,0,0,0,.149-.149V46.773l1.528,2.065a.154.154,0,0,0,.039.037,0,0,0,0,1,0,0l.009.005,0,0,.007,0,.007,0,.005,0,.01,0h0a.136.136,0,0,0,.038.005h.535a.149.149,0,0,0,.149-.149V45.421a.144.144,0,0,0-.145-.149" transform="translate(-50.498 -45.27)"/><path class="a" d="M32.741,48.075H31.283V45.429a.149.149,0,0,0-.149-.149H30.6a.149.149,0,0,0-.149.149v3.332h0a.145.145,0,0,0,.042.1l0,0,0,0a.145.145,0,0,0,.1.042h2.142a.149.149,0,0,0,.149-.149v-.537a.149.149,0,0,0-.149-.149" transform="translate(-30.45 -45.278)"/><path class="a" d="M78.142,46.113a.149.149,0,0,0,.149-.149v-.535a.149.149,0,0,0-.149-.149H76a.145.145,0,0,0-.1.042l0,0s0,0,0,0a.145.145,0,0,0-.042.1h0v3.33h0a.145.145,0,0,0,.042.1l0,0,0,0a.145.145,0,0,0,.1.042h2.142a.149.149,0,0,0,.149-.149v-.537a.149.149,0,0,0-.149-.149H76.683v-.564h1.458a.149.149,0,0,0,.149-.149v-.536a.149.149,0,0,0-.149-.149H76.683v-.563h1.46Z" transform="translate(-67.905 -45.278)"/></g></g></g></g></svg>