<svg xmlns="http://www.w3.org/2000/svg" width="21.29" height="15" viewBox="0 0 21.29 15"><defs><style>.a{fill:#fff;}.b{fill:#e9b0d5;}</style></defs><path class="a" d="M28.845,36.342a2.675,2.675,0,0,0-1.882-1.894C25.3,34,18.645,34,18.645,34s-6.658,0-8.318.448a2.675,2.675,0,0,0-1.882,1.894,30.106,30.106,0,0,0,0,10.316,2.676,2.676,0,0,0,1.882,1.894c1.66.448,8.318.448,8.318.448s6.658,0,8.318-.448a2.675,2.675,0,0,0,1.882-1.894,30.106,30.106,0,0,0,0-10.316Z" transform="translate(-8 -34)"/><path class="b" d="M78,74.623l4.212-2.4L78,69.83Z" transform="translate(-68.804 -64.726)"/></svg>