<svg xmlns="http://www.w3.org/2000/svg" width="21" height="21" viewBox="0 0 21 21">
  <g id="LINE_LOGO_1_" transform="translate(0.7 2)">
    <g id="グループ_162" data-name="グループ 162" transform="translate(-620.351 93.375)">
      <path id="パス_947" data-name="パス 947" d="M636.1-95.375H624.2a4.55,4.55,0,0,0-4.55,4.55v11.9a4.55,4.55,0,0,0,4.55,4.55h11.9a4.551,4.551,0,0,0,4.55-4.55v-11.9A4.551,4.551,0,0,0,636.1-95.375Zm.026,13.392a24.71,24.71,0,0,1-6.008,4.44c-.817.343-.7-.22-.663-.413l.109-.654a1.565,1.565,0,0,0-.024-.691c-.086-.212-.426-.322-.674-.376-3.677-.484-6.4-3.053-6.4-6.121,0-3.422,3.43-6.206,7.646-6.206s7.646,2.785,7.646,6.206l0,0A5.529,5.529,0,0,1,636.127-81.983Z" fill="#fff"/>
      <rect id="長方形_4697" data-name="長方形 4697" width="0.833" height="3.63" rx="0.149" transform="translate(627.875 -87.45)" fill="#fff"/>
      <path id="パス_948" data-name="パス 948" d="M632.254-87.45h-.535a.148.148,0,0,0-.149.149v1.979l-1.526-2.062-.013-.016-.008-.009-.01-.007-.006,0H630l-.01-.005h-.61a.149.149,0,0,0-.15.149v3.332a.15.15,0,0,0,.15.149h.535a.149.149,0,0,0,.148-.149v-2l1.529,2.065a.139.139,0,0,0,.039.037l.008,0h.029a.172.172,0,0,0,.038.005h.535a.15.15,0,0,0,.15-.149V-87.3A.144.144,0,0,0,632.254-87.45Z" fill="#fff"/>
      <path id="パス_949" data-name="パス 949" d="M627.265-84.662l.006.007h-1.459V-87.3a.148.148,0,0,0-.148-.149h-.534a.148.148,0,0,0-.149.149v3.332a.142.142,0,0,0,.042.1.146.146,0,0,0,.1.042h2.143a.149.149,0,0,0,.149-.149v-.537A.149.149,0,0,0,627.265-84.662Z" fill="#fff"/>
      <path id="パス_950" data-name="パス 950" d="M635.216-87.45h-2.141a.142.142,0,0,0-.1.042.147.147,0,0,0-.042.1v3.33a.151.151,0,0,0,.042.1.151.151,0,0,0,.1.042h2.141a.149.149,0,0,0,.149-.149v-.537a.148.148,0,0,0-.149-.149h-1.458v-.564h1.458a.149.149,0,0,0,.149-.149v-.536a.149.149,0,0,0-.149-.149h-1.458v-.563h1.46l0,.015a.149.149,0,0,0,.149-.149V-87.3A.148.148,0,0,0,635.216-87.45Z" fill="#fff"/>
    </g>
  </g>
</svg>
