<svg xmlns="http://www.w3.org/2000/svg" xmlns:xlink="http://www.w3.org/1999/xlink" width="125.85" height="176.051" viewBox="0 0 125.85 176.051"><defs><style>.a{fill:url(#a);}.b{fill:url(#b);}</style><linearGradient id="a" x1="-0.981" y1="-0.683" x2="1.054" y2="0.943" gradientUnits="objectBoundingBox"><stop offset="0" stop-color="#ffa5af"/><stop offset="1" stop-color="#e2b5e3"/></linearGradient><linearGradient id="b" x1="0.1" y1="0.181" x2="1.724" y2="1.477" xlink:href="#a"/></defs><g transform="translate(-115.215 -297.026)">
<path class="a" d="M215.893,433.088a20.186,20.186,0,0,1-3.65-14.353,20.248,20.248,0,0,1-12.251.114,20.891,20.891,0,0,1-2.533-.957l-.378-.17.07-.41a20.18,20.18,0,0,1,7.567-12.728,20.186,20.186,0,0,1-9.857-11.054l-.147-.385.34-.24a20.313,20.313,0,0,1,14.351-3.65,20.182,20.182,0,0,1,.846-14.787l.169-.376.409.071a20.184,20.184,0,0,1,12.728,7.566,20.192,20.192,0,0,1,11.054-9.857l.386-.143.239.334a20.184,20.184,0,0,1,3.65,14.354,20.315,20.315,0,0,1,14.787.846l.375.169-.07.409a20.174,20.174,0,0,1-7.567,12.728,20.184,20.184,0,0,1,9.859,11.054l.144.386-.338.239a20.2,20.2,0,0,1-11.837,3.806h0a20.446,20.446,0,0,1-2.514-.157,20.177,20.177,0,0,1-.846,14.787l-.17.375-.408-.071a20.824,20.824,0,0,1-2.634-.62,20.375,20.375,0,0,1-10.094-6.948,20.173,20.173,0,0,1-11.055,9.859l-.385.147Zm-2.507-14.767a19.118,19.118,0,0,0,3.145,13.808,19.12,19.12,0,0,0,10.327-9.689,20.948,20.948,0,0,1-1.226-2.012,20.191,20.191,0,0,1-2.4-10.232,20.2,20.2,0,0,1-7.708,7.143A20.531,20.531,0,0,1,213.387,418.321Zm14.7,4.006a19.1,19.1,0,0,0,11.984,7.535,19.116,19.116,0,0,0,.455-14.147,21.034,21.034,0,0,1-2.292-.559,20.189,20.189,0,0,1-8.928-5.541,20.2,20.2,0,0,1-.4,10.5A20.77,20.77,0,0,1,228.088,422.327Zm-3.536-14.58a19.337,19.337,0,0,0,2.028,12.172c.244.458.508.91.787,1.349.192-.483.365-.975.518-1.473a19.326,19.326,0,0,0-.336-12.337,20.784,20.784,0,0,1-1.811-3.1A20.68,20.68,0,0,1,224.552,407.746Zm-26.269,9.337a19.24,19.24,0,0,0,14.148.456,20.839,20.839,0,0,1,.558-2.292,20.192,20.192,0,0,1,5.541-8.93,20.306,20.306,0,0,1-10.5-.4,20.887,20.887,0,0,1-2.212-.819A19.11,19.11,0,0,0,198.283,417.083ZM221.2,405.519a19.321,19.321,0,0,0-7.177,10.04c-.151.495-.284,1-.4,1.507.476-.205.947-.431,1.408-.674a19.34,19.34,0,0,0,8.489-8.957,20.615,20.615,0,0,1,.913-3.475A20.78,20.78,0,0,1,221.2,405.519Zm20.115,9.235a19.241,19.241,0,0,0,13.8-3.144,19.11,19.11,0,0,0-9.685-10.324,20.755,20.755,0,0,1-2.016,1.225,20.384,20.384,0,0,1-9.578,2.4q-.33,0-.662-.01a20.189,20.189,0,0,1,7.153,7.712A20.975,20.975,0,0,1,241.311,414.755Zm-12.8-7.81a19.331,19.331,0,0,0,10.04,7.177c.495.151,1,.285,1.509.4-.208-.478-.434-.947-.678-1.4a19.319,19.319,0,0,0-8.972-8.5,20.764,20.764,0,0,1-2.529-.6c-.311-.1-.623-.2-.932-.311A20.67,20.67,0,0,1,228.506,406.944Zm-21.631-2.566c.483.19.975.362,1.471.514a19.242,19.242,0,0,0,12.339-.336,20.612,20.612,0,0,1,3.1-1.81q-.4-.1-.788-.217l-.156-.045a20.5,20.5,0,0,1-2.434-.919,19.221,19.221,0,0,0-12.187,2.026Q207.536,403.957,206.875,404.379Zm-10.858-10.835a19.107,19.107,0,0,0,9.682,10.325,20.578,20.578,0,0,1,2.018-1.224,20.366,20.366,0,0,1,9.585-2.4c.218,0,.435,0,.654.011a20.185,20.185,0,0,1-7.152-7.709,20.893,20.893,0,0,1-.986-2.142,19.251,19.251,0,0,0-13.8,3.145Zm34.718,10.045a19.249,19.249,0,0,0,12.178-2.03c.457-.243.908-.505,1.348-.786-.485-.192-.977-.364-1.471-.515a19.228,19.228,0,0,0-12.339.336,20.618,20.618,0,0,1-3.1,1.812A20.585,20.585,0,0,1,230.735,403.589Zm-10.029-3.066a20.716,20.716,0,0,1,3.477.913,20.617,20.617,0,0,1-1.559-3.233,19.337,19.337,0,0,0-10.041-7.177c-.5-.151-1-.284-1.509-.4.207.476.433.946.677,1.4A19.339,19.339,0,0,0,220.706,400.522Zm6.906-2.8a20.616,20.616,0,0,1-.913,3.475,20.611,20.611,0,0,1,3.236-1.559,19.337,19.337,0,0,0,7.177-10.04c.151-.5.283-1,.395-1.511-.478.207-.948.434-1.406.678A19.33,19.33,0,0,0,227.612,397.724Zm-4.029-.027a20.848,20.848,0,0,1,1.812,3.1,20.536,20.536,0,0,1,1.186-3.391,19.331,19.331,0,0,0-2.029-12.172c-.244-.458-.507-.909-.787-1.347q-.286.728-.513,1.472A19.323,19.323,0,0,0,223.583,397.7Zm13.528.636a20.283,20.283,0,0,1,5.993.9,20.883,20.883,0,0,1,2.212.819,19.112,19.112,0,0,0,7.533-11.985,19.229,19.229,0,0,0-14.147-.454,21.082,21.082,0,0,1-.558,2.292,20.193,20.193,0,0,1-5.542,8.929A20.292,20.292,0,0,1,237.111,398.332ZM210.6,389.441A21.075,21.075,0,0,1,212.9,390a20.213,20.213,0,0,1,8.928,5.541,20.2,20.2,0,0,1,.4-10.5,20.691,20.691,0,0,1,.82-2.212,19.111,19.111,0,0,0-11.985-7.534A19.111,19.111,0,0,0,210.6,389.441Zm13.674-6.732a20.666,20.666,0,0,1,1.225,2.017,20.189,20.189,0,0,1,2.4,10.231,20.2,20.2,0,0,1,7.708-7.143,20.678,20.678,0,0,1,2.141-.986,19.1,19.1,0,0,0-3.145-13.8A19.14,19.14,0,0,0,224.278,382.709Z" transform="translate(-15.35 39.65)"/>
</g></svg>