<svg xmlns="http://www.w3.org/2000/svg" xmlns:xlink="http://www.w3.org/1999/xlink" width="125.85" height="176.051" viewBox="0 0 125.85 176.051"><defs><style>.a{fill:url(#a);}.b{fill:url(#b);}</style><linearGradient id="a" x1="-0.981" y1="-0.683" x2="1.054" y2="0.943" gradientUnits="objectBoundingBox"><stop offset="0" stop-color="#ffa5af"/><stop offset="1" stop-color="#e2b5e3"/></linearGradient><linearGradient id="b" x1="0.1" y1="0.181" x2="1.724" y2="1.477" xlink:href="#a"/></defs><g transform="translate(-115.215 -297.026)">
<path class="b" d="M161.565,407.809a32.16,32.16,0,0,1-3.7-1.826,31.024,31.024,0,0,1-12.679-13.941,30.754,30.754,0,0,1-19.906,10.991l-.537.083-.2-.519a30.728,30.728,0,0,1-.43-22.724c-.982.093-1.972.141-2.956.141a30.9,30.9,0,0,1-15.459-4.151,32,32,0,0,1-3.428-2.288l-.429-.329.209-.5a30.739,30.739,0,0,1,15.767-16.376,30.748,30.748,0,0,1-10.992-19.9l-.079-.538.514-.2a30.938,30.938,0,0,1,22.725-.429,30.749,30.749,0,0,1,6.3-21.846l.323-.427.5.208A30.743,30.743,0,0,1,153.484,329a30.746,30.746,0,0,1,19.905-10.993l.54-.079.2.516a30.731,30.731,0,0,1,.436,22.729c.98-.094,1.969-.142,2.952-.142a31.1,31.1,0,0,1,18.9,6.441l.427.327-.209.5a30.743,30.743,0,0,1-15.769,16.376,30.742,30.742,0,0,1,10.983,19.9l.09.535-.526.2a30.758,30.758,0,0,1-11.9,2.382h0a30.8,30.8,0,0,1-10.821-1.953,30.739,30.739,0,0,1-6.3,21.847l-.327.426Zm-15.4-17.018A29.329,29.329,0,0,0,161.6,406.313a29.341,29.341,0,0,0,5.62-21.163,32.1,32.1,0,0,1-3.274-1.644,30.767,30.767,0,0,1-11.58-11.684,30.762,30.762,0,0,1-4.187,15.91A32.145,32.145,0,0,1,146.165,390.791Zm-20.473-11.112a29.337,29.337,0,0,0-.059,21.895,29.344,29.344,0,0,0,18.937-10.995,32.1,32.1,0,0,1-1.157-3.471,30.757,30.757,0,0,1,.073-16.451,30.74,30.74,0,0,1-14.211,8.289A31.489,31.489,0,0,1,125.692,379.679Zm20.247-11.861a29.676,29.676,0,0,0-1.177,18.925c.227.845.493,1.686.792,2.509.5-.72.977-1.462,1.413-2.217a29.69,29.69,0,0,0,3.762-18.586,31.52,31.52,0,0,1-1.7-5.575A31.531,31.531,0,0,1,145.939,367.818ZM168.5,384.171a29.544,29.544,0,0,0,21.889.059A29.343,29.343,0,0,0,179.4,365.3a31.469,31.469,0,0,1-3.477,1.153,30.931,30.931,0,0,1-16.459-.083,30.765,30.765,0,0,1,8.3,14.22A31.8,31.8,0,0,1,168.5,384.171Zm-16.41-16.087a29.671,29.671,0,0,0,12.55,14.214c.757.436,1.537.844,2.333,1.216-.154-.864-.344-1.725-.57-2.567a29.681,29.681,0,0,0-10.5-15.818,31.237,31.237,0,0,1-3.564-1.757c-.525-.3-1.047-.626-1.556-.961A31.5,31.5,0,0,1,152.089,368.084Zm-48.538,4.707a29.528,29.528,0,0,0,21.154,5.619,32.3,32.3,0,0,1,1.643-3.274,30.777,30.777,0,0,1,11.687-11.581q-.183,0-.366,0a30.983,30.983,0,0,1-15.545-4.189,31.658,31.658,0,0,1-3.059-2.013A29.338,29.338,0,0,0,103.55,372.792Zm38.224-9.508a29.675,29.675,0,0,0-14.214,12.549c-.437.759-.845,1.54-1.216,2.334.863-.152,1.724-.344,2.568-.569a29.689,29.689,0,0,0,15.8-10.481,31.564,31.564,0,0,1,2.739-5.147A31.5,31.5,0,0,1,141.774,363.283Zm14.854.631a29.523,29.523,0,0,0,18.928,1.179c.842-.225,1.682-.491,2.509-.792-.716-.5-1.458-.975-2.217-1.413a29.536,29.536,0,0,0-18.586-3.756,31.541,31.541,0,0,1-5.573,1.7A31.475,31.475,0,0,1,156.628,363.914ZM161,357.493a30.966,30.966,0,0,1,15.543,4.188,31.5,31.5,0,0,1,3.06,2.014,29.332,29.332,0,0,0,15.514-15.44,29.546,29.546,0,0,0-21.155-5.614,32.22,32.22,0,0,1-1.644,3.274A30.772,30.772,0,0,1,160.636,357.5Zm-40.4-.749c.718.5,1.461.974,2.217,1.411a29.527,29.527,0,0,0,18.586,3.763,31.358,31.358,0,0,1,5.575-1.7c-.548-.276-1.089-.567-1.617-.87l-.733-.422.017-.01c-.893-.549-1.762-1.145-2.591-1.778a29.525,29.525,0,0,0-18.947-1.184C122.267,356.18,121.427,356.445,120.6,356.745Zm33.348-2.807a31.508,31.508,0,0,1-2.739,5.146,31.533,31.533,0,0,1,5.68-1.313,29.687,29.687,0,0,0,14.214-12.551l.036-.061c.422-.735.816-1.5,1.178-2.271-.864.154-1.723.344-2.566.57A29.674,29.674,0,0,0,153.953,353.938Zm-11.214,1.967a31.5,31.5,0,0,1,5.158,2.745,31.507,31.507,0,0,1-1.313-5.689,29.681,29.681,0,0,0-12.549-14.215c-.763-.437-1.548-.843-2.344-1.212.153.865.345,1.725.57,2.57A29.694,29.694,0,0,0,142.738,355.905Zm5.2-3.3a31.443,31.443,0,0,1,1.7,5.575,31.494,31.494,0,0,1,3.088-4.945,29.672,29.672,0,0,0,1.176-18.924c-.227-.847-.493-1.687-.792-2.51-.5.718-.975,1.461-1.412,2.218A29.687,29.687,0,0,0,147.94,352.6Zm-39.653-15.777a29.338,29.338,0,0,0,10.987,18.929,32,32,0,0,1,3.476-1.152,30.937,30.937,0,0,1,16.461.077,30.753,30.753,0,0,1-8.3-14.214,31.905,31.905,0,0,1-.74-3.587,29.527,29.527,0,0,0-21.885-.054Zm45.82-6.358a31.673,31.673,0,0,1,1.154,3.477,30.746,30.746,0,0,1-.074,16.448A30.764,30.764,0,0,1,169.4,342.1a32.266,32.266,0,0,1,3.586-.74,29.333,29.333,0,0,0,.053-21.89A29.337,29.337,0,0,0,154.108,330.466Zm-22.654,5.426a32.211,32.211,0,0,1,3.274,1.645,30.758,30.758,0,0,1,11.579,11.684,30.761,30.761,0,0,1,4.187-15.909,32.055,32.055,0,0,1,2.013-3.06,29.329,29.329,0,0,0-15.44-15.514A29.34,29.34,0,0,0,131.453,335.893Z" transform="translate(13.374 -16)"/></g></svg>