<svg xmlns="http://www.w3.org/2000/svg" xmlns:xlink="http://www.w3.org/1999/xlink" width="95" height="94.991" viewBox="0 0 95 94.991"><defs><style>.a{fill:url(#a);}</style><linearGradient id="a" x1="0.9" y1="0.819" x2="-0.724" y2="-0.477" gradientUnits="objectBoundingBox"><stop offset="0" stop-color="#ffa5af"/><stop offset="1" stop-color="#e2b5e3"/></linearGradient></defs><path class="a" d="M137.117,313.234a32.16,32.16,0,0,1,3.7,1.826A31.024,31.024,0,0,1,153.492,329,30.754,30.754,0,0,1,173.4,318.01l.537-.083.2.519a30.728,30.728,0,0,1,.43,22.724c.982-.093,1.972-.141,2.956-.141a30.9,30.9,0,0,1,15.459,4.151,32,32,0,0,1,3.428,2.288l.429.329-.209.5a30.739,30.739,0,0,1-15.767,16.376,30.749,30.749,0,0,1,10.992,19.9l.079.538-.514.2a30.938,30.938,0,0,1-22.725.429,30.749,30.749,0,0,1-6.3,21.846l-.323.427-.5-.208A30.743,30.743,0,0,1,145.2,392.041a30.746,30.746,0,0,1-19.905,10.993l-.54.079-.2-.516a30.731,30.731,0,0,1-.436-22.729c-.98.094-1.969.142-2.952.142a31.1,31.1,0,0,1-18.9-6.441l-.427-.327.209-.5a30.743,30.743,0,0,1,15.769-16.376,30.742,30.742,0,0,1-10.983-19.9l-.09-.535.526-.2a30.758,30.758,0,0,1,11.9-2.382h0a30.8,30.8,0,0,1,10.821,1.953,30.739,30.739,0,0,1,6.3-21.847l.327-.426Zm15.4,17.018a29.329,29.329,0,0,0-15.434-15.522,29.341,29.341,0,0,0-5.62,21.163,32.1,32.1,0,0,1,3.274,1.644,30.767,30.767,0,0,1,11.58,11.684,30.763,30.763,0,0,1,4.187-15.91A32.145,32.145,0,0,1,152.517,330.252Zm20.473,11.112a29.337,29.337,0,0,0,.059-21.895,29.344,29.344,0,0,0-18.937,10.995,32.1,32.1,0,0,1,1.157,3.471,30.757,30.757,0,0,1-.073,16.451,30.74,30.74,0,0,1,14.211-8.289A31.489,31.489,0,0,1,172.99,341.364Zm-20.247,11.861A29.676,29.676,0,0,0,153.92,334.3c-.227-.845-.493-1.686-.792-2.509-.5.72-.977,1.462-1.413,2.217a29.691,29.691,0,0,0-3.762,18.586,31.52,31.52,0,0,1,1.7,5.575A31.531,31.531,0,0,1,152.743,353.225Zm-22.559-16.353a29.544,29.544,0,0,0-21.889-.059,29.343,29.343,0,0,0,10.991,18.929,31.469,31.469,0,0,1,3.477-1.153,30.932,30.932,0,0,1,16.459.083,30.765,30.765,0,0,1-8.3-14.22A31.8,31.8,0,0,1,130.184,336.872Zm16.41,16.087a29.671,29.671,0,0,0-12.55-14.214c-.757-.436-1.537-.844-2.333-1.216.154.864.344,1.725.57,2.567a29.681,29.681,0,0,0,10.5,15.818,31.237,31.237,0,0,1,3.564,1.757c.525.3,1.047.626,1.556.961A31.5,31.5,0,0,1,146.594,352.959Zm48.538-4.707a29.528,29.528,0,0,0-21.154-5.619,32.3,32.3,0,0,1-1.643,3.274,30.777,30.777,0,0,1-11.687,11.581q.183,0,.366,0a30.983,30.983,0,0,1,15.545,4.189,31.658,31.658,0,0,1,3.059,2.013A29.338,29.338,0,0,0,195.132,348.251Zm-38.224,9.508a29.675,29.675,0,0,0,14.214-12.549c.437-.759.845-1.54,1.216-2.334-.863.152-1.724.344-2.568.569a29.689,29.689,0,0,0-15.8,10.481,31.564,31.564,0,0,1-2.739,5.147A31.5,31.5,0,0,1,156.908,357.76Zm-14.854-.631a29.523,29.523,0,0,0-18.928-1.179c-.842.225-1.682.491-2.509.792.716.5,1.458.975,2.217,1.413a29.536,29.536,0,0,0,18.586,3.756,31.541,31.541,0,0,1,5.573-1.7A31.475,31.475,0,0,1,142.054,357.129Zm-4.376,6.421a30.966,30.966,0,0,1-15.543-4.188,31.5,31.5,0,0,1-3.06-2.014,29.332,29.332,0,0,0-15.514,15.44,29.546,29.546,0,0,0,21.155,5.614,32.22,32.22,0,0,1,1.644-3.274,30.772,30.772,0,0,1,11.685-11.581Zm40.4.749c-.718-.5-1.461-.974-2.217-1.411a29.527,29.527,0,0,0-18.586-3.763,31.358,31.358,0,0,1-5.575,1.7c.548.276,1.089.567,1.617.87l.733.422-.017.01c.893.549,1.762,1.145,2.591,1.778a29.525,29.525,0,0,0,18.947,1.184C176.415,364.864,177.255,364.6,178.078,364.3Zm-33.348,2.807a31.508,31.508,0,0,1,2.739-5.146,31.533,31.533,0,0,1-5.68,1.313,29.687,29.687,0,0,0-14.214,12.551l-.036.061c-.422.735-.816,1.5-1.178,2.271.864-.154,1.723-.344,2.566-.57A29.674,29.674,0,0,0,144.729,367.105Zm11.214-1.967a31.5,31.5,0,0,1-5.158-2.745,31.507,31.507,0,0,1,1.313,5.689A29.681,29.681,0,0,0,164.648,382.3c.763.437,1.548.843,2.344,1.212-.153-.865-.345-1.725-.57-2.57A29.694,29.694,0,0,0,155.944,365.138Zm-5.2,3.3a31.443,31.443,0,0,1-1.7-5.575,31.494,31.494,0,0,1-3.088,4.945,29.673,29.673,0,0,0-1.176,18.924c.227.847.493,1.687.792,2.51.5-.718.975-1.461,1.412-2.218A29.687,29.687,0,0,0,150.742,368.442Zm39.653,15.777a29.338,29.338,0,0,0-10.987-18.929,32,32,0,0,1-3.476,1.152,30.937,30.937,0,0,1-16.461-.077,30.753,30.753,0,0,1,8.3,14.214,31.905,31.905,0,0,1,.74,3.587,29.527,29.527,0,0,0,21.885.054Zm-45.82,6.358a31.673,31.673,0,0,1-1.154-3.477,30.746,30.746,0,0,1,.074-16.448,30.764,30.764,0,0,1-14.211,8.289,32.266,32.266,0,0,1-3.586.74,29.333,29.333,0,0,0-.053,21.89A29.337,29.337,0,0,0,144.574,390.577Zm22.654-5.426a32.211,32.211,0,0,1-3.274-1.645,30.758,30.758,0,0,1-11.579-11.684,30.761,30.761,0,0,1-4.187,15.909,32.055,32.055,0,0,1-2.013,3.06,29.329,29.329,0,0,0,15.44,15.514A29.34,29.34,0,0,0,167.229,385.15Z" transform="translate(-101.841 -313.026)"/></svg>