<svg xmlns="http://www.w3.org/2000/svg" width="199.564" height="31.648" viewBox="0 0 199.564 31.648"><defs><style>.a{fill:#fff;}</style></defs><g transform="translate(-95.434 -285.773)"><path class="a" d="M112.313,308.494a5.144,5.144,0,0,1-2.063-1.633q-1.312-1.632-2.272-3.007t-2.3-3.648a2.883,2.883,0,0,0-1.184-1.185,6.734,6.734,0,0,0-2.016-.543q-.448,0-.448.64v5.792a2.578,2.578,0,0,0,.528,1.7,2.841,2.841,0,0,0,1.744.865,2.135,2.135,0,0,1,.7.239.43.43,0,0,1,.224.369q0,.383-.832.383-.321,0-2.144-.1a13.5,13.5,0,0,0-1.632-.1q-1.089,0-2.112.1c-.214,0-.544.015-.992.048s-.864.047-1.248.047q-.833,0-.832-.383a.428.428,0,0,1,.224-.369,2.127,2.127,0,0,1,.7-.239,3.4,3.4,0,0,0,1.76-.72,2.128,2.128,0,0,0,.512-1.584V291.277a7.876,7.876,0,0,0-.128-1.679,1.186,1.186,0,0,0-.512-.768,3.48,3.48,0,0,0-1.28-.369,1.269,1.269,0,0,1-.72-.224.535.535,0,0,1-.24-.416c0-.128.079-.229.24-.3a1.389,1.389,0,0,1,.592-.113q1.023,0,2.048.065l1.536.031q.543,0,1.5-.063a23.3,23.3,0,0,1,2.432-.128,9.62,9.62,0,0,1,5.5,1.312,4.443,4.443,0,0,1,1.888,3.9,4.675,4.675,0,0,1-1.12,3.217,8.047,8.047,0,0,1-2.753,2,.147.147,0,0,0-.1.159l.064.257q1.92,2.912,3.184,4.559A25.281,25.281,0,0,0,113.833,306a3.736,3.736,0,0,0,1.7.96,10.924,10.924,0,0,0,2.272.191q.48,0,.48.449,0,.735-.928,1.071a6.158,6.158,0,0,1-2.112.336A7.49,7.49,0,0,1,112.313,308.494Zm-5.567-12.161a4.61,4.61,0,0,0,1.2-3.231,5.6,5.6,0,0,0-.928-3.473,4.028,4.028,0,0,0-3.36-1.2,1.208,1.208,0,0,0-1.2.608,6.6,6.6,0,0,0-.368,2.367q-.064,2.049-.064,5.089a1,1,0,0,0,.368.927,2.314,2.314,0,0,0,1.168.225A4.108,4.108,0,0,0,106.746,296.333Z"/><path class="a" d="M118.633,307.917a5.982,5.982,0,0,1-2.1-2.479,8.368,8.368,0,0,1-.753-3.632,7.066,7.066,0,0,1,3.248-5.969,5.9,5.9,0,0,1,3.217-.943,4.675,4.675,0,0,1,3.279,1.184,3.856,3.856,0,0,1,1.3,2.976,1.134,1.134,0,0,1-.24.8.99.99,0,0,1-.752.255h-6.624a.7.7,0,0,0-.624.257,1.747,1.747,0,0,0-.176.927,5.578,5.578,0,0,0,.609,2.592,4.735,4.735,0,0,0,1.679,1.872,4.266,4.266,0,0,0,2.352.688,4.41,4.41,0,0,0,3.2-1.407q.159-.256.352-.256.287,0,.287.351a2.512,2.512,0,0,1-.448,1.217,5.041,5.041,0,0,1-1.936,1.775,5.754,5.754,0,0,1-2.8.688A5.406,5.406,0,0,1,118.633,307.917Zm3.168-8.9a11.5,11.5,0,0,0,2.208-.16q.288-.1.288-.8a1.923,1.923,0,0,0-.735-1.52,2.633,2.633,0,0,0-1.761-.625,2.716,2.716,0,0,0-1.376.416,3.483,3.483,0,0,0-1.135,1.057,2.224,2.224,0,0,0-.433,1.248c0,.256.139.383.416.383Z"/><path class="a" d="M130.3,308.35a3.6,3.6,0,0,1-1.072-1.088,2.471,2.471,0,0,1,.16-2.961,5.255,5.255,0,0,1,1.856-1.183l3.1-1.312a1.845,1.845,0,0,0,.768-.449,2.021,2.021,0,0,0,.16-.863l.064-1.952a2.09,2.09,0,0,0-.432-1.457,1.59,1.59,0,0,0-1.3-.56,2.777,2.777,0,0,0-.912.161,2.182,2.182,0,0,0-.752.416,1.138,1.138,0,0,0-.256.832l.032.7q0,.256-.912.719a3.475,3.475,0,0,1-1.456.464.382.382,0,0,1-.3-.128.421.421,0,0,1-.112-.288,3.118,3.118,0,0,1,1.344-2.208,10.286,10.286,0,0,1,2.56-1.648,6.16,6.16,0,0,1,2.464-.655,2.8,2.8,0,0,1,2.176.912,3.24,3.24,0,0,1,.8,2.352l-.16,7.232a1.8,1.8,0,0,0,.288,1.152.953.953,0,0,0,.8.447,1.565,1.565,0,0,0,1.152-.384.354.354,0,0,1,.224-.127.372.372,0,0,1,.272.111.34.34,0,0,1,.112.241,1.231,1.231,0,0,1-.448.8,4.333,4.333,0,0,1-1.168.849,2.747,2.747,0,0,1-1.2.3,2.832,2.832,0,0,1-2.56-1.728h-.1a7.734,7.734,0,0,1-1.984,1.327,4.8,4.8,0,0,1-1.92.4A2.347,2.347,0,0,1,130.3,308.35Zm4.528-1.969a1.711,1.711,0,0,0,.352-1.152l.064-1.824v-.159q0-.449-.288-.449a1.454,1.454,0,0,0-.544.161,6.042,6.042,0,0,0-2,1.12,1.782,1.782,0,0,0-.592,1.312,1.669,1.669,0,0,0,.432,1.232,1.382,1.382,0,0,0,1.008.432A2.147,2.147,0,0,0,134.825,306.381Z"/><path class="a" d="M140.874,308.078a.371.371,0,0,1,.175-.336,4.05,4.05,0,0,1,.56-.272,4.152,4.152,0,0,0,1.008-.432.887.887,0,0,0,.3-.785V290.414q0-2.049-1.408-2.336-.257-.064-.256-.449,0-.351.224-.416a15.5,15.5,0,0,0,2.608-.783q1.231-.5,1.488-.593a1.047,1.047,0,0,1,.288-.064.154.154,0,0,1,.144.1.413.413,0,0,1,.048.192c0,.127-.032.5-.1,1.1s-.1,1.435-.1,2.48v16.607a.91.91,0,0,0,.321.8,3.453,3.453,0,0,0,.991.416q.736.256.737.608,0,.319-.641.319t-1.536-.064q-.832-.063-1.376-.063-.511,0-1.343.063a9.885,9.885,0,0,1-1.505.1C141.086,308.43,140.874,308.313,140.874,308.078Z"/><path class="a" d="M154.825,308.4a.309.309,0,0,1-.224-.288c0-.276.309-.48.928-.608a3.8,3.8,0,0,0,1.792-.751,2,2,0,0,0,.544-1.553V290.733a2.386,2.386,0,0,0-.464-1.631,2.505,2.505,0,0,0-1.616-.641,1.185,1.185,0,0,1-.7-.224.549.549,0,0,1-.224-.416.338.338,0,0,1,.224-.3,1.367,1.367,0,0,1,.608-.113q.992,0,2.08.065l1.6.031a12.182,12.182,0,0,0,1.536-.1q1.824-.1,2.368-.1a11.439,11.439,0,0,1,5.712,1.1,3.935,3.935,0,0,1,1.84,3.664,4.459,4.459,0,0,1-.368,1.823,4.1,4.1,0,0,1-.912,1.345,6.478,6.478,0,0,1-.976.768,5.961,5.961,0,0,1-1.232.544.194.194,0,0,0-.128.175c0,.076.042.123.128.144a12.851,12.851,0,0,1,2.336.9,4.574,4.574,0,0,1,1.7,1.568,4.945,4.945,0,0,1,.7,2.784,6.167,6.167,0,0,1-.512,2.688,4.338,4.338,0,0,1-1.2,1.584,10.78,10.78,0,0,1-1.616,1.008,12.6,12.6,0,0,1-5.5,1.056c-.214,0-.661-.021-1.344-.064q-1.281-.064-2.176-.064-.768,0-2.048.064-1.024.1-2.24.1A1.572,1.572,0,0,1,154.825,308.4Zm11.264-12.832a2.86,2.86,0,0,0,.864-1.023,3.965,3.965,0,0,0,.416-1.953q0-4.159-4.192-4.159a2.546,2.546,0,0,0-1.536.336,1.293,1.293,0,0,0-.416,1.071v5.473a.986.986,0,0,0,.432.927,1.865,1.865,0,0,0,.976.257A6.232,6.232,0,0,0,166.089,295.565Zm-.224,10.8a4.84,4.84,0,0,0,1.744-1.7,4.42,4.42,0,0,0,.656-2.352,4.489,4.489,0,0,0-.624-2.511,4.73,4.73,0,0,0-1.456-1.456,6.051,6.051,0,0,0-3.264-.768,1.969,1.969,0,0,0-1.248.352.985.985,0,0,0-.448.768v6.111a2.12,2.12,0,0,0,.576,1.681,2.588,2.588,0,0,0,1.728.5A4.619,4.619,0,0,0,165.865,306.366Z" transform="translate(-3)"/><path class="a" d="M176.969,307.917a5.984,5.984,0,0,1-2.1-2.479,8.368,8.368,0,0,1-.752-3.632,7.06,7.06,0,0,1,3.248-5.969,5.894,5.894,0,0,1,3.216-.943,4.679,4.679,0,0,1,3.28,1.184,3.859,3.859,0,0,1,1.3,2.976,1.139,1.139,0,0,1-.24.8.99.99,0,0,1-.752.255h-6.624a.7.7,0,0,0-.624.257,1.737,1.737,0,0,0-.176.927,5.577,5.577,0,0,0,.608,2.592,4.745,4.745,0,0,0,1.68,1.872,4.264,4.264,0,0,0,2.352.688,4.41,4.41,0,0,0,3.2-1.407.438.438,0,0,1,.352-.256q.288,0,.288.351a2.522,2.522,0,0,1-.448,1.217,5.048,5.048,0,0,1-1.936,1.775,5.758,5.758,0,0,1-2.8.688A5.405,5.405,0,0,1,176.969,307.917Zm3.168-8.9a11.512,11.512,0,0,0,2.208-.16q.288-.1.288-.8a1.924,1.924,0,0,0-.736-1.52,2.63,2.63,0,0,0-1.76-.625,2.71,2.71,0,0,0-1.376.416,3.5,3.5,0,0,0-1.136,1.057,2.23,2.23,0,0,0-.432,1.248c0,.256.139.383.416.383Z" transform="translate(-3)"/><path class="a" d="M188.633,308.35a3.576,3.576,0,0,1-1.072-1.088,2.471,2.471,0,0,1,.16-2.961,5.237,5.237,0,0,1,1.856-1.183l3.1-1.312a1.852,1.852,0,0,0,.768-.449,2.01,2.01,0,0,0,.159-.863l.065-1.952a2.09,2.09,0,0,0-.432-1.457,1.593,1.593,0,0,0-1.3-.56,2.777,2.777,0,0,0-.912.161,2.173,2.173,0,0,0-.752.416,1.138,1.138,0,0,0-.257.832l.033.7c0,.171-.305.41-.912.719a3.479,3.479,0,0,1-1.457.464.38.38,0,0,1-.3-.128.422.422,0,0,1-.113-.288,3.12,3.12,0,0,1,1.345-2.208,10.268,10.268,0,0,1,2.56-1.648,6.16,6.16,0,0,1,2.464-.655,2.8,2.8,0,0,1,2.175.912,3.24,3.24,0,0,1,.8,2.352l-.16,7.232a1.783,1.783,0,0,0,.288,1.152.953.953,0,0,0,.8.447,1.567,1.567,0,0,0,1.153-.384.352.352,0,0,1,.223-.127.374.374,0,0,1,.273.111.344.344,0,0,1,.112.241,1.233,1.233,0,0,1-.449.8,4.318,4.318,0,0,1-1.168.849,2.743,2.743,0,0,1-1.2.3,2.831,2.831,0,0,1-2.56-1.728h-.1a7.768,7.768,0,0,1-1.984,1.327,4.8,4.8,0,0,1-1.92.4A2.345,2.345,0,0,1,188.633,308.35Zm4.528-1.969a1.717,1.717,0,0,0,.352-1.152l.064-1.824v-.159c0-.3-.1-.449-.288-.449a1.449,1.449,0,0,0-.544.161,6.031,6.031,0,0,0-2,1.12,1.782,1.782,0,0,0-.592,1.312,1.673,1.673,0,0,0,.431,1.232,1.384,1.384,0,0,0,1.009.432A2.15,2.15,0,0,0,193.161,306.381Z" transform="translate(-3)"/><path class="a" d="M209.865,308.686l.064-.929a6.452,6.452,0,0,0,.1-1.055v-.257a7.013,7.013,0,0,1-5.216,2.337,3.357,3.357,0,0,1-2.576-1.089,4.159,4.159,0,0,1-1.008-2.943v-6.336a1.866,1.866,0,0,0-.32-1.137,1.969,1.969,0,0,0-1.024-.655.535.535,0,0,1-.448-.544.493.493,0,0,1,.48-.544,16.51,16.51,0,0,0,1.824-.193q.736-.127,1.856-.416a2.9,2.9,0,0,1,.416-.064q.384,0,.352.449a15.413,15.413,0,0,0-.224,2.463v6.208a2.836,2.836,0,0,0,.736,1.969,2.337,2.337,0,0,0,1.7.847,6.115,6.115,0,0,0,1.376-.128,2.631,2.631,0,0,0,1.056-.544,2.76,2.76,0,0,0,1.152-2.271v-5.6a1.363,1.363,0,0,0-.624-1.232,2.71,2.71,0,0,0-1.36-.432q-.705,0-.7-.575,0-.545.7-.544,1.759-.064,2.64-.177a12.671,12.671,0,0,0,1.808-.368,1.139,1.139,0,0,1,.352-.064.52.52,0,0,1,.32.1.3.3,0,0,1,.128.255.484.484,0,0,1-.032.177c-.022.053-.043.111-.064.175q-.064.384-.144,1.121t-.08,1.12V305.2q0,1.473.576,1.472l1.28-.064c.341,0,.512.161.512.48a.479.479,0,0,1-.48.513,13.592,13.592,0,0,0-2.16.447q-.945.288-2,.7a1.749,1.749,0,0,1-.7.224C209.95,308.974,209.865,308.877,209.865,308.686Z" transform="translate(-3)"/><path class="a" d="M218.168,307.79a4.074,4.074,0,0,1-.944-2.913v-7.423a.385.385,0,0,0-.224-.369,1.993,1.993,0,0,0-.8-.111h-.256c-.128,0-.235-.085-.32-.257a1.2,1.2,0,0,1-.128-.544.3.3,0,0,1,.08-.192.475.475,0,0,1,.144-.127,13.043,13.043,0,0,0,1.856-1.312,19.882,19.882,0,0,0,1.632-1.5l.224-.225a.584.584,0,0,1,.416-.191.4.4,0,0,1,.448.48l-.192,1.567v.128a.423.423,0,0,0,.192.4,1.164,1.164,0,0,0,.576.113h3.712c.064,0,.128.074.192.224a1.128,1.128,0,0,1,.1.447,2.323,2.323,0,0,1-.1.672c-.064.214-.139.321-.224.321h-3.1a2.179,2.179,0,0,0-1.04.159c-.16.108-.24.352-.24.737v6.208a3.371,3.371,0,0,0,.544,2.064,1.811,1.811,0,0,0,1.536.719,5.48,5.48,0,0,0,1.328-.128,3.221,3.221,0,0,0,.944-.416l.16-.064q.257,0,.256.513,0,.224-.624.719a6.79,6.79,0,0,1-1.552.9,4.725,4.725,0,0,1-1.888.4A3.557,3.557,0,0,1,218.168,307.79Z" transform="translate(-3)"/><path class="a" d="M224.872,317.021a1.3,1.3,0,0,1-.576-1.136,1.959,1.959,0,0,1,.3-1.1.959.959,0,0,1,.848-.465,3.554,3.554,0,0,1,.8.128c.085.021.181.043.288.064a1.824,1.824,0,0,0,.352.033,1.1,1.1,0,0,0,.544-.112,1.017,1.017,0,0,0,.352-.432,31.655,31.655,0,0,0,2.336-4.8,2.73,2.73,0,0,0,.192-1.024,2.889,2.889,0,0,0-.256-1.184l-3.776-9.216a2.626,2.626,0,0,0-1.5-1.664,2.487,2.487,0,0,1-.512-.288.423.423,0,0,1-.16-.351c0-.193.224-.288.672-.288q.736,0,1.5.064.641.064,1.12.064.576,0,1.28-.064.831-.064,1.5-.064a1.1,1.1,0,0,1,.464.1c.139.064.208.15.208.257q0,.416-.832.7a.848.848,0,0,0-.544.352,1.4,1.4,0,0,0-.16.737,2.544,2.544,0,0,0,.32,1.088l2.368,5.856c.043.106.1.16.16.16.042,0,.085-.054.128-.16l2.016-5.537a2.725,2.725,0,0,0,.16-.575,3.586,3.586,0,0,0,.064-.64,1.228,1.228,0,0,0-.736-1.248,4,4,0,0,1-.64-.353.463.463,0,0,1-.224-.383c0-.107.075-.193.224-.257a1.124,1.124,0,0,1,.448-.1c.235,0,.565.021.992.064q.7.064,1.28.064a9.8,9.8,0,0,0,1.088-.064,7.478,7.478,0,0,1,.928-.064c.448,0,.672.1.672.288a.423.423,0,0,1-.16.351,2.515,2.515,0,0,1-.512.288,2.328,2.328,0,0,0-1.056.737,4.752,4.752,0,0,0-.832,1.343L231.5,308.941q-1.184,2.944-2.912,6.976a2.391,2.391,0,0,1-.944,1.121,2.671,2.671,0,0,1-1.424.383A2.3,2.3,0,0,1,224.872,317.021Z" transform="translate(-3)"/><path class="a" d="M251.144,307.454a11.035,11.035,0,0,1-4.3-3.808,9.91,9.91,0,0,1-1.616-5.584,9.791,9.791,0,0,1,1.664-5.52,11.6,11.6,0,0,1,4.544-3.968,13.84,13.84,0,0,1,6.337-1.456,15.935,15.935,0,0,1,2.847.223q1.217.225,2.912.7a1.316,1.316,0,0,1,.624.369,1.1,1.1,0,0,1,.241.655q.192,1.857.287,3.713a.453.453,0,0,1-.176.367.568.568,0,0,1-.368.144.578.578,0,0,1-.608-.48,9.655,9.655,0,0,0-.72-1.983,3.766,3.766,0,0,0-1.072-1.281,7.064,7.064,0,0,0-4.416-1.216,7.263,7.263,0,0,0-4.175,1.249,8.638,8.638,0,0,0-2.881,3.3,9.558,9.558,0,0,0-1.04,4.385,12.874,12.874,0,0,0,1.008,5.088,9.159,9.159,0,0,0,2.88,3.792,7.014,7.014,0,0,0,4.368,1.423,6.723,6.723,0,0,0,3.776-.991,7.814,7.814,0,0,0,2.56-3.04.763.763,0,0,1,.672-.449.435.435,0,0,1,.32.128.522.522,0,0,1,.129.385,7.006,7.006,0,0,1-.241,1.44,16.712,16.712,0,0,1-.56,1.856,2.1,2.1,0,0,1-.352.576,1.717,1.717,0,0,1-.608.32,13.48,13.48,0,0,1-2.832.752,20.941,20.941,0,0,1-3.407.271A12.654,12.654,0,0,1,251.144,307.454Z" transform="translate(-6)"/><path class="a" d="M268.343,308.35a3.6,3.6,0,0,1-1.072-1.088,2.471,2.471,0,0,1,.16-2.961,5.255,5.255,0,0,1,1.856-1.183l3.1-1.312a1.845,1.845,0,0,0,.768-.449,2.021,2.021,0,0,0,.16-.863l.064-1.952a2.09,2.09,0,0,0-.432-1.457,1.592,1.592,0,0,0-1.3-.56,2.777,2.777,0,0,0-.912.161,2.182,2.182,0,0,0-.752.416,1.139,1.139,0,0,0-.256.832l.032.7q0,.256-.912.719a3.475,3.475,0,0,1-1.456.464.38.38,0,0,1-.3-.128.421.421,0,0,1-.112-.288,3.118,3.118,0,0,1,1.344-2.208,10.287,10.287,0,0,1,2.56-1.648,6.16,6.16,0,0,1,2.464-.655,2.8,2.8,0,0,1,2.176.912,3.24,3.24,0,0,1,.8,2.352l-.16,7.232a1.8,1.8,0,0,0,.288,1.152.953.953,0,0,0,.8.447,1.565,1.565,0,0,0,1.152-.384.354.354,0,0,1,.224-.127.372.372,0,0,1,.272.111.34.34,0,0,1,.112.241,1.231,1.231,0,0,1-.448.8,4.333,4.333,0,0,1-1.168.849,2.747,2.747,0,0,1-1.2.3,2.832,2.832,0,0,1-2.56-1.728h-.1a7.734,7.734,0,0,1-1.984,1.327,4.8,4.8,0,0,1-1.92.4A2.348,2.348,0,0,1,268.343,308.35Zm4.528-1.969a1.711,1.711,0,0,0,.352-1.152l.064-1.824v-.159q0-.449-.288-.449a1.449,1.449,0,0,0-.544.161,6.042,6.042,0,0,0-2,1.12,1.782,1.782,0,0,0-.592,1.312,1.669,1.669,0,0,0,.432,1.232,1.381,1.381,0,0,0,1.008.432A2.147,2.147,0,0,0,272.871,306.381Z" transform="translate(-6)"/><path class="a" d="M279.175,308.045a.411.411,0,0,1,.176-.352,1.682,1.682,0,0,1,.56-.223,1.72,1.72,0,0,0,.928-.432,1.1,1.1,0,0,0,.288-.785v-7.04a3.21,3.21,0,0,0-.256-1.392,1.3,1.3,0,0,0-.928-.688.492.492,0,0,1-.352-.48.452.452,0,0,1,.32-.447,12.7,12.7,0,0,0,1.84-.672q1.008-.449,1.744-.865a1.436,1.436,0,0,1,.576-.255c.149,0,.224.085.224.255l-.1,2.464c0,.086.021.129.064.129a7.966,7.966,0,0,1,1.84-1.728,3.543,3.543,0,0,1,1.968-.673,2.111,2.111,0,0,1,1.28.336,1.052,1.052,0,0,1,.448.881,2.272,2.272,0,0,1-.464,1.279,1.274,1.274,0,0,1-1.008.672,3.253,3.253,0,0,1-1.024-.351c-.086-.043-.24-.113-.464-.208a1.539,1.539,0,0,0-.592-.144,2.029,2.029,0,0,0-1.536.639,3.124,3.124,0,0,0-.608,2.177v6.016a.91.91,0,0,0,.384.767,4.52,4.52,0,0,0,1.28.576,1.686,1.686,0,0,1,.56.225.382.382,0,0,1,.176.319c0,.256-.2.385-.608.385a13.727,13.727,0,0,1-1.7-.1q-.96-.063-1.472-.063t-1.344.063a11.219,11.219,0,0,1-1.568.1C279.388,308.43,279.175,308.3,279.175,308.045Z" transform="translate(-6)"/><path class="a" d="M292.743,307.917a5.984,5.984,0,0,1-2.1-2.479,8.367,8.367,0,0,1-.752-3.632,7.06,7.06,0,0,1,3.248-5.969,5.894,5.894,0,0,1,3.216-.943,4.679,4.679,0,0,1,3.28,1.184,3.863,3.863,0,0,1,1.3,2.976,1.139,1.139,0,0,1-.241.8.991.991,0,0,1-.752.255h-6.624a.7.7,0,0,0-.624.257,1.737,1.737,0,0,0-.176.927,5.577,5.577,0,0,0,.608,2.592,4.745,4.745,0,0,0,1.68,1.872,4.261,4.261,0,0,0,2.352.688,4.41,4.41,0,0,0,3.2-1.407q.159-.256.352-.256.287,0,.287.351a2.508,2.508,0,0,1-.447,1.217,5.041,5.041,0,0,1-1.936,1.775,5.758,5.758,0,0,1-2.8.688A5.4,5.4,0,0,1,292.743,307.917Zm3.168-8.9a11.512,11.512,0,0,0,2.208-.16q.288-.1.288-.8a1.924,1.924,0,0,0-.736-1.52,2.63,2.63,0,0,0-1.76-.625,2.71,2.71,0,0,0-1.376.416,3.487,3.487,0,0,0-1.136,1.057,2.23,2.23,0,0,0-.432,1.248c0,.256.138.383.416.383Z" transform="translate(-6)"/></g></svg>