<svg xmlns="http://www.w3.org/2000/svg" xmlns:xlink="http://www.w3.org/1999/xlink" width="150" height="150.003" viewBox="0 0 150 150.003"><defs><style>.a{fill:url(#a);}.b{filter:url(#b);}</style><linearGradient id="a" x1="0.237" y1="0.168" x2="0.81" y2="0.891" gradientUnits="objectBoundingBox"><stop offset="0" stop-color="#ffa5af"/><stop offset="1" stop-color="#e2b5e3"/></linearGradient><filter id="b" x="0" y="0" width="150" height="150.003" filterUnits="userSpaceOnUse"><feOffset input="SourceAlpha"/><feGaussianBlur stdDeviation="10" result="c"/><feFlood flood-color="#edf9ff"/><feComposite operator="in" in2="c"/><feComposite in="SourceGraphic"/></filter></defs><g class="b" transform="matrix(1, 0, 0, 1, 0, 0)"><path class="a" d="M388.112,272.4a28.115,28.115,0,0,1-10.735-17.812,28.411,28.411,0,0,1-16.393,5.249,29.48,29.48,0,0,1-3.8-.246l-.489-.063-.063-.49a28.128,28.128,0,0,1,5-20.192,28.129,28.129,0,0,1-17.815-10.744l-.311-.389.318-.4a28.115,28.115,0,0,1,17.808-10.735,28.126,28.126,0,0,1-5-20.194l.063-.488.49-.063a28.317,28.317,0,0,1,20.19,5,28.128,28.128,0,0,1,10.744-17.815l.4-.307.392.315a28.118,28.118,0,0,1,10.736,17.811,28.306,28.306,0,0,1,20.193-5l.489.063.062.49a28.125,28.125,0,0,1-5,20.19A28.124,28.124,0,0,1,433.2,227.333l.3.391-.314.393a28.119,28.119,0,0,1-17.809,10.736,28.125,28.125,0,0,1,5,20.195l-.06.484-.489.066a29.3,29.3,0,0,1-3.767.245,28.427,28.427,0,0,1-16.426-5.248A28.133,28.133,0,0,1,388.9,272.412l-.388.312Zm-9.572-18.693a26.849,26.849,0,0,0,9.976,17.38,26.842,26.842,0,0,0,9.97-17.38,29.557,29.557,0,0,1-2.5-2.221,28.151,28.151,0,0,1-7.469-13.073,28.133,28.133,0,0,1-7.469,13.073A29.043,29.043,0,0,1,378.541,253.711Zm-20.7,4.678a27.019,27.019,0,0,0,19.331-5.239,28.911,28.911,0,0,1-.2-3.348,28.148,28.148,0,0,1,3.962-14.52,28.146,28.146,0,0,1-14.448,3.963,29.427,29.427,0,0,1-3.42-.2A26.848,26.848,0,0,0,357.845,258.39Zm42-5.235a27.014,27.014,0,0,0,19.334,5.229,26.84,26.84,0,0,0-5.234-19.33,29.217,29.217,0,0,1-3.347.2,28.245,28.245,0,0,1-14.521-3.963,28.132,28.132,0,0,1,3.962,14.521A29.036,29.036,0,0,1,399.849,253.155Zm-16.066-19.793a27.152,27.152,0,0,0-5.521,16.445c0,.8.034,1.61.1,2.409.613-.514,1.208-1.06,1.775-1.626a27.163,27.163,0,0,0,7.729-15.535,28.833,28.833,0,0,1-.185-5.335A28.8,28.8,0,0,1,383.783,233.362Zm5.375,1.7a27.154,27.154,0,0,0,7.727,15.53c.565.565,1.159,1.11,1.777,1.626.069-.8.1-1.605.1-2.4a27.15,27.15,0,0,0-5.522-16.447,28.792,28.792,0,0,1-3.9-3.64A28.906,28.906,0,0,1,389.158,235.058Zm5-2.608a27.167,27.167,0,0,0,16.367,5.522c.859,0,1.681-.036,2.487-.106-.519-.616-1.063-1.212-1.627-1.775a27.152,27.152,0,0,0-15.558-7.731,28.716,28.716,0,0,1-3.624.238q-.84,0-1.686-.05A28.8,28.8,0,0,1,394.153,232.45Zm-30.134,5.415c.8.07,1.606.106,2.406.106a27.225,27.225,0,0,0,16.447-5.522,28.808,28.808,0,0,1,3.642-3.9q-.616.035-1.231.046v.005h-.454a28.935,28.935,0,0,1-3.628-.241,27.157,27.157,0,0,0-15.555,7.73C365.081,236.654,364.537,237.249,364.019,237.865ZM399.2,227.716a28.138,28.138,0,0,1,13.084,7.476,29.147,29.147,0,0,1,2.232,2.5,26.845,26.845,0,0,0,17.371-9.972,26.848,26.848,0,0,0-17.371-9.973,29.332,29.332,0,0,1-2.233,2.506A28.142,28.142,0,0,1,399.2,227.716Zm-54.063,0a26.849,26.849,0,0,0,17.372,9.974,29.005,29.005,0,0,1,2.233-2.5,28.143,28.143,0,0,1,13.081-7.475,28.135,28.135,0,0,1-13.082-7.467,29.113,29.113,0,0,1-2.232-2.5A26.85,26.85,0,0,0,345.139,227.718Zm47.049-.874a29.021,29.021,0,0,1,3.657.233,27.151,27.151,0,0,0,15.539-7.727c.566-.566,1.111-1.161,1.628-1.776-.8-.071-1.605-.105-2.406-.106a27.221,27.221,0,0,0-16.448,5.522,28.837,28.837,0,0,1-3.645,3.9C391.073,226.86,391.633,226.844,392.188,226.844Zm-28.168-9.273c.516.614,1.062,1.209,1.627,1.776a27.157,27.157,0,0,0,15.533,7.728,28.84,28.84,0,0,1,3.657-.233c.557,0,1.116.016,1.674.048a28.83,28.83,0,0,1-3.637-3.9,27.159,27.159,0,0,0-16.365-5.522v-.453l-.082.453C365.625,217.466,364.819,217.5,364.02,217.571Zm19.763,4.505a28.805,28.805,0,0,1,3.9,3.641,28.806,28.806,0,0,1,.185-5.333,27.153,27.153,0,0,0-7.728-15.536c-.566-.566-1.161-1.111-1.776-1.627-.07.815-.1,1.614-.1,2.407A27.163,27.163,0,0,0,383.783,222.076Zm5.375-1.693a28.89,28.89,0,0,1,.185,5.333,28.816,28.816,0,0,1,3.9-3.641,27.158,27.158,0,0,0,5.522-16.444h0c0-.8-.036-1.61-.106-2.411-.614.515-1.208,1.061-1.776,1.627A27.16,27.16,0,0,0,389.158,220.383Zm10.695-18.1a29.178,29.178,0,0,1,.2,3.347,28.139,28.139,0,0,1-3.963,14.521,28.155,28.155,0,0,1,14.449-3.963,29.485,29.485,0,0,1,3.418.2,26.846,26.846,0,0,0,5.23-19.335,27.013,27.013,0,0,0-19.331,5.234Zm-33.354,13.9a28.149,28.149,0,0,1,14.448,3.963,28.138,28.138,0,0,1-3.962-14.522,29.06,29.06,0,0,1,.2-3.345,26.995,26.995,0,0,0-19.337-5.23,26.9,26.9,0,0,0,5.236,19.33,29.244,29.244,0,0,1,3.347-.2Zm12.043-14.467a29.119,29.119,0,0,1,2.5,2.233,28.124,28.124,0,0,1,7.468,13.072,28.142,28.142,0,0,1,7.469-13.073,29.515,29.515,0,0,1,2.5-2.232,26.848,26.848,0,0,0-9.969-17.368A26.848,26.848,0,0,0,378.541,201.714Z" transform="translate(-313.51 -152.72)"/></g></svg>